<svg width="64" height="64" viewBox="0 0 64 64" fill="none" xmlns="http://www.w3.org/2000/svg">
<rect width="64" height="64" fill="black"/>
<path fill-rule="evenodd" clip-rule="evenodd" d="M43.9561 17C47.6705 17 50.4785 17.6476 52.3789 18.9434C54.2935 20.2246 55.2509 22.1253 55.251 24.6445C55.251 26.3721 54.7682 27.8334 53.8037 29.0283C52.8535 30.2089 51.3994 31.0083 49.4414 31.4258C51.9033 31.7137 53.7753 32.4909 55.0566 33.7578C56.3524 35.0104 57 36.6739 57 38.7471C56.9999 41.5109 55.9634 43.6486 53.8906 45.1602C51.8175 46.6718 48.9376 47.4277 45.252 47.4277H30.0273V21.88L22.1963 21.9238V47.4277H15.8262V21.9238H6V17C6 17 24.5877 17.1164 30.0273 17.1C35.467 17.0836 43.9561 17 43.9561 17ZM36.3975 42.6982H44.7119C46.7563 42.6982 48.2468 42.3319 49.1826 41.5977C50.1328 40.849 50.6074 39.7329 50.6074 38.25C50.6074 35.3994 48.5633 33.9736 44.4746 33.9736H36.3975V42.6982ZM36.3975 29.2666H43.6973C45.4965 29.2666 46.7992 28.9567 47.6055 28.3379C48.4261 27.7044 48.8369 26.7613 48.8369 25.5088C48.8369 24.1411 48.3978 23.1687 47.5195 22.5928C46.6558 22.017 45.3672 21.7295 43.6543 21.7295H36.3975V29.2666Z" fill="white"/>
</svg>
